@startuml

Player -- PlayerDao
Group -- GroupDao
Game -- GameDao
GameOutcome --  GameOutcomeDao

class Player {
String playerId
String playerName
List<Groups> groups
}

class Group {
String groupId
String groupName
List<Player> players
List<Games> games
List<GameOutcome> gameOutcomes
}

class Game {
String gameId
String gameName
String rulesLink
String purchaseLink
}

class GameOutcome {
String gameOutcomeId
String gameId
String groupId
String playerWinsId
List<String> playerLoseIds
}

class PlayerDao {
DynamoDbMapper mapper
MetricsPublisher metrics
getPlayerActivity() : Player
createPlayerActivity() : Player
updatePlayerActivity() : Player
}

class GroupDao {
DynamoDbMapper mapper
MetricsPublisher metrics
getGroupActivity() : Group
createGroupActivity() : Group
updateGroupActivity() : Group
}

class GameDao {
DynamoDbMapper mapper
MetricsPublisher metrics
getGameActivity() : Game
createGameActivity() : Game
updateGameActivity() : Game
}

class GameOutcomeDao {
DynamoDbMapper mapper
MetricsPublisher metrics
getGameOutcomeActivity() : GameOutcome
createGameOutcomeActivity() : GameOutcome
updateGameOutcomeActivity() : GameOutcome
}


newpage

class Exception
class RuntimeException
class PlayerNotFoundException
class GroupNotFoundException
class GameNotFoundException
class GameOutcomeNotFoundException
class PlayerInvalidException
class GroupInvalidException
class GameInvalidException
class OutcomeInvalidException
class InvalidAttributeValueException
class InvalidAttributeChangeException
class InvalidAttributeException
class PlaylistNotFoundException
Exception <|-- RuntimeException
RuntimeException <|-- InvalidAttributeException
RuntimeException <|-- PlaylistNotFoundException
InvalidAttributeException <|-- PlayerInvalidException
InvalidAttributeException <|-- GroupInvalidException
InvalidAttributeException <|-- GameInvalidException
InvalidAttributeException <|--  OutcomeInvalidException

InvalidAttributeException <|-- InvalidAttributeValueException
InvalidAttributeException <|-- InvalidAttributeChangeException


@enduml